<?xml version="1.0" encoding="UTF-8" standalone="no" ?>
<!DOCTYPE svg PUBLIC "-//W3C//DTD SVG 1.1//EN" "http://www.w3.org/Graphics/SVG/1.1/DTD/svg11.dtd">
<svg xmlns="http://www.w3.org/2000/svg" xmlns:xlink="http://www.w3.org/1999/xlink" version="1.1" width="800" height="800" viewBox="-900 -900 800 800" xml:space="preserve">
<desc>Created with Fabric.js 5.2.4</desc>
<defs>
</defs>
<rect x="0" y="0" width="100%" height="100%" fill="transparent"></rect>
<g transform="matrix(1 0 0 1 400 400)" id="9947f085-a3fb-408d-b499-da0024ce3662"  >
<rect style="stroke: none; stroke-width: 1; stroke-dasharray: none; stroke-linecap: butt; stroke-dashoffset: 0; stroke-linejoin: miter; stroke-miterlimit: 4; fill: rgb(255,255,255); fill-rule: nonzero; opacity: 1; visibility: hidden;" vector-effect="non-scaling-stroke"  x="-400" y="-400" rx="0" ry="0" width="800" height="800" />
</g>
<g transform="matrix(Infinity NaN NaN Infinity 0 0)" id="2432942b-ffd6-4224-adb8-8803802f1d63"  >
</g>
<g transform="matrix(39.95 0 0 39.95 -525.75 -440.26)" id="7ee6b10c-3b51-42b6-ae4a-5a22d5a837d4"  >
<path style="stroke: rgb(0,0,0); stroke-width: 0; stroke-dasharray: none; stroke-linecap: butt; stroke-dashoffset: 0; stroke-linejoin: miter; stroke-miterlimit: 4; fill: rgb(206,134,43); fill-rule: nonzero; opacity: 1;" vector-effect="non-scaling-stroke"  transform=" translate(-4.03, -3.95)" d="M 7.9 2.8 C 6.9 -0.7 1.3 -1 0.1 2.5 C -0.30000000000000004 3.6 1.3 4.2 1.9000000000000001 3.3 C 2.5 2.2 5 2.1 5.5 3.4 C 6.2 5.2 3.2 6 2 5.4 C 1.4 5 0.5 5.8 1 6.4 C 3.3 9.9 8.9 6.6 7.9 2.8 z" stroke-linecap="round" />
</g>
<g transform="matrix(NaN NaN NaN NaN 0 0)"  >
<g style=""   >
</g>
</g>
<g transform="matrix(NaN NaN NaN NaN 0 0)"  >
<g style=""   >
</g>
</g>
</svg>