<?xml version="1.0" encoding="utf-8"?>
<!-- Generator: Adobe Illustrator 22.1.0, SVG Export Plug-In . SVG Version: 6.00 Build 0)  -->
<svg version="1.1" id="Режим_изоляции"
	 xmlns="http://www.w3.org/2000/svg" xmlns:xlink="http://www.w3.org/1999/xlink" x="0px" y="0px" viewBox="0 0 37.5 4.7"
	 style="enable-background:new 0 0 37.5 4.7;" xml:space="preserve">
<style type="text/css">
	.st0{fill:#f7b035;}
</style>
<g>
	<g>
		<g>
			<g>
				<g>
					<path class="st0" d="M37,3c0,0,0.1-0.2,0.1-0.2C37,2.8,37,3.1,37,3z"/>
					<polygon class="st0" points="36,3.3 36,3.2 35.8,3.4 					"/>
					<path class="st0" d="M35.2,3.1c0,0.4,0.3,0,0.4,0.2l0,0.1l0.1-0.3C35.5,3.1,35.3,3.2,35.2,3.1z"/>
					<path class="st0" d="M34.9,2.2C34.9,2.4,34.8,2.3,34.9,2.2C35,2.3,35,2.3,34.9,2.2C35,2.2,34.9,2.2,34.9,2.2z"/>
					<path class="st0" d="M35,2.2C35.1,2.3,35,2.1,35,2.2L35,2.2z"/>
					<path class="st0" d="M34.6,2.2l0.1-0.1C34.7,2,34.6,2,34.7,2C34.5,2,34.5,2.1,34.6,2.2z"/>
					<path class="st0" d="M34.4,2.5L34.4,2.5C34.5,2.4,34.5,2.4,34.4,2.5z"/>
					<path class="st0" d="M34.6,2.3l-0.2,0.1C34.5,2.5,34.5,2.6,34.6,2.3C34.5,2.5,34.6,2.4,34.6,2.3z"/>
					<path class="st0" d="M34.7,2.4c0,0.1,0.1,0.2,0,0.3C34.9,2.7,34.9,2.4,34.7,2.4z"/>
					<path class="st0" d="M35,3.4l0.1,0.1l0.1-0.1C35.1,3.5,35.1,3.3,35,3.4z"/>
					<path class="st0" d="M33.9,1.9c0,0.1,0,0.2,0,0.3L34,2.1C33.9,2.1,33.9,2,33.9,1.9z"/>
					<path class="st0" d="M33.9,2.2l-0.2,0.1C33.8,2.3,33.9,2.3,33.9,2.2z"/>
					<polygon class="st0" points="34.3,2.8 34.6,2.6 34.3,2.8 					"/>
					<polygon class="st0" points="33.4,1.8 33.5,1.6 33.3,1.9 					"/>
					<path class="st0" d="M33.1,1.7c0.1-0.1,0-0.3,0.1-0.3c-0.1,0-0.2,0.1-0.3,0.2C32.9,1.6,33,1.6,33.1,1.7z"/>
					<path class="st0" d="M32.7,1.7c0,0,0.1-0.1,0.1-0.1C32.8,1.6,32.8,1.7,32.7,1.7z"/>
					<path class="st0" d="M33.5,2.2c0,0,0-0.2-0.1-0.2L33.5,2.2L33.5,2.2z"/>
					<path class="st0" d="M33.5,2.2L33.5,2.2c-0.1,0-0.1,0-0.1,0C33.4,2.2,33.4,2.2,33.5,2.2z"/>
					<path class="st0" d="M33.5,2.2L33.5,2.2C33.5,2.2,33.5,2.2,33.5,2.2z"/>
					<path class="st0" d="M34,2.6c-0.1,0.1-0.3,0.2-0.2,0.4C33.9,2.8,33.9,2.7,34,2.6z"/>
					<path class="st0" d="M33.5,2.5l0.1,0.1c0-0.1,0-0.1,0.1-0.2L33.5,2.5z"/>
					<polygon class="st0" points="33.5,2.5 33.5,2.5 33.5,2.5 					"/>
					<path class="st0" d="M32.9,2c-0.1,0.1-0.1,0.1-0.2,0.1c0.1,0.1,0.1,0.1,0.2,0.1C32.9,2.1,33,2,32.9,2z"/>
					<path class="st0" d="M33.2,2.1L33.2,2.1C33.2,2.1,33.2,2.2,33.2,2.1z"/>
					<polygon class="st0" points="32,1.9 32,2 32,1.9 					"/>
					<path class="st0" d="M32.9,2.2c0,0.1,0.1,0,0.1,0C33,2.2,32.9,2.2,32.9,2.2C32.9,2.2,32.9,2.2,32.9,2.2z"/>
					<path class="st0" d="M32.5,1.8c0,0,0,0.1,0.1,0.1C32.5,1.9,32.5,1.8,32.5,1.8z"/>
					<path class="st0" d="M33.1,2.1L33.1,2.1C33.1,2,33.1,2,33.1,2.1z"/>
					<path class="st0" d="M33.1,2.1c0,0-0.1,0.1-0.1,0.1C33.1,2.2,33.1,2.1,33.1,2.1C33.2,2.1,33.1,2.1,33.1,2.1z"/>
					<path class="st0" d="M31.5,3.2c0-0.2,0.2-0.3,0.3-0.1C32,3,32,2.3,32,2c0,0.1,0,0.2-0.2,0.3c0,0.1,0.2,0.3,0.1,0.5
						c-0.2,0.1-0.1-0.1-0.2-0.2c0,0.3-0.3,0.3-0.3,0.7L31.5,3C31.5,3.1,31.5,3.2,31.5,3.2z"/>
					<path class="st0" d="M32.2,2L32.2,2c0-0.1,0-0.1-0.1-0.3C32,1.8,32,1.9,32,1.9L32.2,2L32.2,2z"/>
					<path class="st0" d="M32.5,2.1c-0.1,0.2-0.2,0.3-0.2,0.5c0.2,0,0.1-0.2,0.3-0.2C32.3,2.4,32.7,2.3,32.5,2.1c0.1,0,0.1,0,0.1,0
						c0,0-0.1-0.1-0.1-0.1l0,0l0,0l0,0C32.6,2,32.6,2,32.5,2.1L32.5,2.1C32.6,2,32.5,2,32.5,2.1C32.5,2,32.5,2,32.5,2.1l0-0.1l0,0
						L32.3,2C32.3,2.1,32.4,2.1,32.5,2.1z"/>
					<path class="st0" d="M33.6,3.4C33.6,3.4,33.6,3.4,33.6,3.4C33.6,3.4,33.6,3.4,33.6,3.4z"/>
					<path class="st0" d="M33.5,3.3c0,0,0.1-0.1,0.1-0.1C33.7,3.3,33.6,3.3,33.5,3.3c0.1,0.1,0.2,0,0.1-0.2l0,0
						c-0.1-0.1-0.2-0.4-0.1-0.4C33.5,2.9,33.5,3.1,33.5,3.3z"/>
					<path class="st0" d="M33,2.7l-0.2,0.1L32.8,3l0-0.1C33,2.9,33,2.8,33,2.7z"/>
					<polygon class="st0" points="32,1.8 32,1.6 31.9,1.9 					"/>
					<polygon class="st0" points="31.7,1.8 31.7,1.6 31.6,1.7 					"/>
					<path class="st0" d="M15.7,3L15.7,3C15.6,3,15.6,3,15.7,3z"/>
					<path class="st0" d="M16.1,3L16.1,3C16.1,3,16.1,3,16.1,3z"/>
					<path class="st0" d="M24.7,0.8c-0.1-0.2-0.2-0.5-0.2-0.3l0,0.2C24.6,0.8,24.7,0.8,24.7,0.8z"/>
					<path class="st0" d="M19.9,1.9L19.9,1.9c0,0,0.1-0.1,0.1-0.1C19.9,1.8,19.9,1.8,19.9,1.9z"/>
					<path class="st0" d="M19.8,2.8l-0.1-0.1C19.7,2.7,19.7,2.7,19.8,2.8z"/>
					<path class="st0" d="M13.2,3.3l-0.1,0.2C13.2,3.6,13.2,3.5,13.2,3.3z"/>
					<path class="st0" d="M28.8,1.4c-0.1-0.1-0.1-0.1-0.2-0.2C28.7,1.4,28.7,1.6,28.8,1.4z"/>
					<path class="st0" d="M15.8,0.7c0,0-0.1,0.1-0.1,0.1C15.8,0.8,15.8,0.7,15.8,0.7z"/>
					<path class="st0" d="M28.4,1.2C28.4,1.2,28.4,1.2,28.4,1.2c0.1,0,0.2,0,0.2,0C28.5,1.1,28.5,1.1,28.4,1.2z"/>
					<path class="st0" d="M4.3,4.3C4.3,4.3,4.3,4.3,4.3,4.3C4.2,4.3,4.3,4.3,4.3,4.3z"/>
					<path class="st0" d="M1.2,2.7c0,0,0.1,0,0.1,0C1.3,2.6,1.3,2.7,1.2,2.7z"/>
					<path class="st0" d="M30.6,1.5C30.6,1.5,30.6,1.5,30.6,1.5L30.6,1.5z"/>
					<path class="st0" d="M30.7,2.4C30.7,2.4,30.7,2.4,30.7,2.4C30.7,2.4,30.7,2.4,30.7,2.4z"/>
					<path class="st0" d="M27.6,2.5L27.6,2.5C27.6,2.5,27.6,2.5,27.6,2.5z"/>
					<path class="st0" d="M30.6,1.6C30.6,1.6,30.6,1.6,30.6,1.6C30.6,1.5,30.6,1.6,30.6,1.6z"/>
					<path class="st0" d="M30.6,1.5C30.7,1.5,30.7,1.5,30.6,1.5C30.7,1.5,30.7,1.5,30.6,1.5z"/>
					<path class="st0" d="M30.5,1.5C30.5,1.5,30.5,1.5,30.5,1.5C30.6,1.5,30.6,1.5,30.5,1.5C30.5,1.5,30.5,1.5,30.5,1.5z"/>
					<path class="st0" d="M9,3C8.9,3,8.9,3,9,3C8.9,3.1,8.9,3,9,3z"/>
					<polygon class="st0" points="23,3 23,3 23,2.9 					"/>
					<path class="st0" d="M22.7,3.1c0.1-0.3,0.2-0.2,0.2-0.2l0-0.6L22.7,3.1z"/>
					<path class="st0" d="M14.6,3.1l0.2,0.2c-0.2,0.3-0.3,0.2-0.1,0.5c0-0.7,0.6-0.1,0.6-0.8l0.1,0.1c0,0,0,0-0.1,0
						c0.2,0.3,0.1-0.5,0.4-0.4c0.1,0,0.1,0.1,0.1,0.2l0.2-0.2c0.1,0,0,0.1,0,0.1l0.3-0.1l0,0c0-0.1,0.1-0.3,0.2-0.3
						c0.1,0.1,0,0.1,0,0.2l0.2-0.2c0.1,0.2-0.1,0.3-0.2,0.3c0.2,0.7,0.1-0.2,0.5,0.2l-0.2,0.1c0.1,0.4,0.2,0.2,0.4,0.5
						c0-0.1-0.4-0.6-0.2-0.8c0,0.1,0.1,0.1,0.2-0.1C17,3.1,17.1,3,17.2,3l0,0.3c0.1-0.1,0.1-0.3,0.2-0.4c0.1,0,0.2,0.3,0.2,0.5
						c0.2,0.1-0.2-0.4,0.1-0.5c0.2,0.1,0.3,0,0.5-0.2c0.1,0.1,0,0.2,0,0.3l0.1-0.3c0,0,0,0.1,0,0.1c0.1-0.1,0-0.3,0.2-0.4
						c0-0.4,0.3,0.5,0.5,0.1c0,0.1,0,0.2,0,0.3c0.3-0.3,0.2-0.2,0.4-0.5l0.2,0.2c-0.1-0.2,0-0.5,0.2-0.8c0-0.1-0.1-0.2-0.1-0.3
						L20,1.4c0,0.1,0,0.2,0,0.3l0-0.1c0.1,0.1,0,0.3,0,0.5c0-0.1-0.1-0.1-0.1-0.2c-0.1,0.2-0.1,0.4-0.1,0.6c0,0,0-0.1,0.1-0.1
						c0,0.1,0,0.1,0,0.1c0,0,0,0,0.1-0.1l0,0.4l0-0.1l0.3,0.2c0.2-0.4,0.4-0.9,0.8-1C21,2.1,21,2.3,21,2.6c-0.1-0.3-0.3,0.1-0.5,0.1
						c0.1,0,0.1,0.2,0,0.2l0.3-0.3c0,0.3,0.1,0.2,0.1,0.3c0-0.5,0.3-0.3,0.4-0.5c0,0.2,0,0.3-0.2,0.3c0.2,0.4,0.3-0.6,0.4-0.2
						c0,0-0.1,0-0.1,0.1c0.1-0.1,0.3,0,0.3,0.1l0,0c0.3,0.1,0.8,0,0.9-0.4c0,0.1-0.1,0.5-0.1,0.6l0.6-1.4c-0.1,0.4,0,1.2-0.2,1.4
						C23,3,23.1,3.1,23.2,3c0-0.1-0.1-0.5,0-0.6c0.1,0.4,0.1,0.2,0.3,0.6c-0.1-0.1,0.1-0.6,0.2-0.6c0,0.1,0,0.6-0.1,0.6l0.3-0.5
						c-0.1,0.1,0,0.5,0,0.6c0-0.1,0.2,0,0.3,0l-0.1-0.1c0.3,0.1,0.3-0.8,0.6-0.7c0,0.1-0.1,0.7,0,0.8c0.1-0.3,0.4-1.4,0.7-1.6l0,0.2
						l0.2-0.2c-0.2,0.4-0.6,1.3-0.8,1.6c0.1,0.1,0,0.2,0.2,0.2c0,0.2-0.1,0.2-0.2,0.2l0.4,0.1c0-0.3,0.3-0.3,0.3-0.6l-0.4,0.3
						c0-0.3,0.3-0.9,0.6-0.8c0.1,0.1-0.1,0.6-0.1,0.7c0-0.1,0.3-0.2,0.3-0.1l-0.1,0.2c0.1,0.1,0.3-0.4,0.4-0.1
						c0.1,0,0.1,0.5,0.2,0.3c-0.1-0.4,0.1-1.6,0.2-1.9c0,0,0.3,0.4,0.3,0.6c0.1,0.3-0.2,0.7-0.2,1c0-0.1,0.1-0.2,0.1-0.2
						c0.1,0.1-0.1,0.3,0.1,0.3c0.1-0.3,0.3,0.1,0.1-0.3C27,2.8,27,3,27.2,3c0-0.2,0.2-0.7,0.4-0.8c0,0.1,0,0.2,0,0.3
						c0.3,0.1,0.4,0.2,0.7,0.3c0,0.1,0.1,0.2,0,0.3c0-0.1,0.1-0.2,0.2-0.2c0.1,0.3-0.2,0-0.1,0.4c0-0.2,0.2-0.2,0.4-0.3
						c0-0.3-0.3-0.1-0.4,0c0.1-0.4,0.3-0.8,0.6-1c0.2-0.1,0.1,0.3,0.1,0.2c0.4,0.1,0.5-0.7,0.8-0.3c0.1,0.3-0.1,0.5-0.1,0.7
						c-0.2,0.1-0.2-0.2-0.4-0.2l0.1,0.1c-0.1,0.1-0.2,0.1-0.2,0c0.1,0.3,0.7,0.1,0.9,0.4c0.1-0.1,0.2-0.2,0.2-0.3l-0.1,0
						c-0.1-0.2,0.2-0.3,0.1-0.4c0.2-0.1,0.3-0.3,0.5-0.2l0,0.3c0-0.1-0.1-0.2-0.2-0.1c0.1-0.1,0.2,0.5,0.4,0.1L31,2.2
						c0.2-0.1,0.4-0.4,0.5-0.3c0-0.3,0,0-0.1-0.3c0,0.5-0.4-0.1-0.3,0.4c0-0.4-0.2-0.2-0.3-0.6c0,0.1,0,0.2-0.1,0.1c0,0,0,0.1,0,0.1
						c0,0,0,0,0,0l0,0c0,0,0,0,0,0c0,0,0,0.1,0,0.2C30.6,2,30.4,2,30.3,2.1c-0.1-0.1,0.1-0.1,0-0.2L30.1,2c0-0.2-0.2-0.4,0.1-0.5
						l-0.2,0c-0.1-0.1-0.2-0.2-0.3-0.1c-0.1-0.1-0.2,0.2-0.1,0.1l-0.3,0.1l0-0.1c-0.3-0.1-0.6,0.3-0.9-0.2c-0.1,0-0.2,0.1-0.4,0
						l0-0.2c-0.1,0-0.3-0.2-0.4,0c-0.1-0.5-0.6-0.2-0.8-0.3l0,0.3c-0.1,0-0.3,0-0.5,0.1l0,0.2c-0.2,0.2-0.4-0.2-0.6-0.2
						c0-0.1,0.1-0.1,0.1,0C25.6,0.6,25.2,1.4,25,1c-0.1,0.1-0.1,0-0.2,0c0,0,0,0,0,0c0,0,0,0,0,0c0,0-0.1-0.1-0.1-0.1
						c0,0.1,0,0.1,0.1,0.1c-0.1,0-0.1,0-0.2,0.1l0-0.2c0,0,0,0,0,0c-0.1-0.1-0.1,0.1,0,0.3c0,0-0.1,0.1-0.1,0.1
						c0-0.4-0.2,0.1-0.3-0.3C24,1.1,23.7,1,23.7,1.5c0-0.1,0-0.1,0-0.1c-0.1-0.1-0.2-0.1-0.2,0l0-0.3l-0.2,0.4
						c-0.1-0.2-0.1-0.3,0-0.5c-0.3,0.3-0.2,0.1-0.5,0.5l0-0.2c-0.1,0-0.2,0.3-0.3,0.1c-0.2-0.4-0.9-0.1-1.3-0.5
						c0.1,0.6-0.2-0.3-0.2,0.2c0-0.1-0.1-0.2,0-0.3c-0.2,0.1-0.4-0.2-0.5,0.1c0-0.1,0.1-0.2,0-0.3c0,0-0.1,0.1-0.1,0
						c0-0.1,0-0.1,0.1-0.2c-0.2,0-0.3,0.4-0.3,0.8c-0.1-0.2-0.2-0.2-0.3,0.1c0-0.1-0.1-0.3,0-0.3c-0.1,0-0.5-0.2-0.5,0.1
						c0-0.1-0.1,0-0.1,0c-0.2,0-0.2-0.1-0.4,0l0.1,0.1c-0.1,0.4-0.2,0.1-0.3,0.1l0,0C18.2,1,18.4,1.4,18,1.1l0,0.2
						c0,0.5-0.3-0.3-0.5-0.1l0.1,0.1c-0.1,0.2-0.3-0.7-0.4-0.8c0,0,0-0.1,0.1-0.1c-0.3-0.3,0,0.3-0.2,0.4c0-0.2,0-0.4-0.1-0.5
						c-0.1-0.1-0.4,0.5-0.6,0.2c0,0.1,0.1,0.3,0,0.4c-0.1,0.1-0.4-0.5-0.5-0.1c0,0,0-0.1,0-0.1c-0.1,0.1-0.4,0.2-0.4,0.4
						c-0.1-0.8-0.7,0.4-0.7-0.3L14.2,1l0-0.1c-0.2,0-0.3,0.2-0.4,0.3c-0.1,0,0-0.1,0-0.2c-0.3-0.1-0.4-0.1-0.6,0.3l0-0.2
						c-0.1,0.1-0.5-0.4-0.8,0c0,0,0-0.1,0-0.1c-0.3,0.3-0.9-0.6-1,0.3l-0.2,0.2c0.3,0,0,0.4,0.1,0.5c-0.1,0.1-0.3-0.2-0.2-0.3l0,0
						c0-0.5-0.4-0.1-0.4-0.4c-0.6,0.1-1.2-0.1-1.8-0.1L9,1.6l-0.2,0c-0.1-0.1-0.1-0.3,0-0.3C8.7,1.1,8.6,1.5,8.6,1.6
						c-0.3-0.1,0.1-0.4,0-0.4l-0.1,0l0,0C8.4,1.4,8.4,1.6,8.3,1.6C8.1,1.5,8.2,1.4,8.1,1.4c0,0,0,0-0.1,0l-0.3,0l0.1,0.3
						C7.9,1.8,7.7,1.6,7.9,2c-0.2-0.5-1-0.1-1.1-0.2C6.7,2,6.5,2,6.3,2c0.1,0.1,0.1,0.4,0,0.4c0-0.7-0.3-0.2-0.6-0.7
						C5.9,2,5.3,1.8,5.5,2.3c-0.1,0,0-0.2-0.2-0.4C5.1,2.2,4.6,1.8,4.2,2c0,0.1,0.1,0.2,0,0.4L4,1.9C3.9,2,4,2.5,3.8,2.2
						c0,0.1,0.1,0.2,0,0.2C2.9,2.1,2.3,3.1,1.3,2.5c0.1,0.1,0.1,0.2,0,0.2c0.1,0,0,0.2,0.1,0.3L1,2.7c0,0.3-0.4,0.1-0.3,0.4l0.1-0.1
						C0.7,3.5,1.2,3.8,1.3,4.3c0.1-0.4,0.5,0.5,0.7-0.1c0.1,0.1,0,0.2,0,0.3C2,4.2,2,4.2,2.2,4.2l0,0.1c0.4-0.1,0.6,0,1.1,0.1
						L3.2,4.1c0.1,0,0.1,0.1,0.2,0.1c0-0.4-0.3,0-0.3-0.4C3.4,4.3,3.8,3.7,4,4.3C4.2,4.2,3.9,4,4.1,4l0.1,0.1l0-0.2
						c0.1,0,0.2,0.2,0.2,0.3c0,0-0.1,0-0.1,0.1c0.2,0.1,0.3-0.1,0.4-0.1L4.5,4.2C4.9,3.9,5.4,4,5.8,3.7l0-0.1C6,3.3,6,3.7,6.3,3.5
						l0,0c0-0.1,0.1-0.2,0.2-0.2C6.4,3.5,6.7,3.6,6.6,3.7c0.3-0.3,0.1-0.2,0.3-0.6L7,3.3C7,3.1,7,3,7.2,2.9c-0.1,0.2,0.1,0.3,0,0.5
						c0.4,0.3,0.5-0.5,0.7,0.1C8,3,7.6,3.3,7.6,3.1C7.5,3,7.7,2.7,7.8,2.8c0.1,0,0.3,0.6,0.6,0.6c0,0,0,0-0.1,0
						c0.1,0.1,0.2-0.2,0.3,0c0-0.3,0.2,0,0.1-0.4L8.6,3.1C8.7,3,8.8,2.5,9.1,2.7C9.1,2.8,9,2.9,9,3C9,3.1,9.1,2.9,9.2,3
						c0,0.4-0.3,0.1-0.4,0.4C8.8,3.6,9,3.1,9,3.5c0-0.6,0.3,0,0.4-0.4l0,0.2c0,0,0.1-0.2,0.1-0.2L9.5,3.5c0.1-0.3,0.3,0.2,0.5,0
						c-0.3,0-0.1-0.3-0.3-0.4C10,2.8,10,3.7,10.4,3.6c-0.1,0-0.2-0.1-0.2-0.2c0.1,0,0.2,0.1,0.3,0.2c0.3-0.1-0.1-0.2,0-0.4
						c0.1,0.3,0.1-0.1,0.2-0.2l0,0.2c0.3,0.1,0-0.5,0.3-0.4l-0.1,0.3l0.1-0.1l0,0.3c0.1-0.2,0.2-0.2,0.4-0.1c-0.1-0.2,0-0.4,0.1-0.5
						c0.1,0.1,0,0.2,0.2,0.2c0,0.2-0.1,0.3-0.2,0.1c0,0.1,0,0.2,0,0.2c0.1,0.2,0.3,0,0.3,0c0,0-0.1,0-0.1,0l0.3-0.4
						c0.1,0.1,0,0.2,0,0.2c0.1,0,0.1-0.1,0.2-0.2c0,0.2,0,0.4-0.1,0.5l0.3-0.2c0,0.1,0.2,0.2,0.1,0.3c0.2,0.1,0.4-0.4,0.6-0.3
						c0,0,0-0.1,0.1-0.1c0.2,0,0.4,0.3,0.6,0L14,3.5c0.2-0.1-0.2-0.4,0.1-0.6c0.2-0.1,0.1,0.3,0.2,0.4c0.1-0.2,0.3-0.5,0.5-0.3
						C14.7,3.1,14.6,3.1,14.6,3.1z M16.8,2.9c0,0.1-0.1,0.2-0.2,0.1C16.7,2.7,16.7,2.8,16.8,2.9z M20.2,2.3c0,0.1-0.1,0-0.1-0.1
						C20.1,2.3,20.1,2.3,20.2,2.3z M29.9,1.6C29.9,1.6,29.9,1.6,29.9,1.6C29.8,1.5,29.8,1.5,29.9,1.6z M30.1,1.7
						C30.1,1.7,30.1,1.6,30.1,1.7C30.1,1.7,30,1.7,30.1,1.7C30,1.7,30,1.8,30.1,1.7z M8.1,1.4L8.1,1.4C8.1,1.6,8.1,1.5,8.1,1.4z"/>
					<path class="st0" d="M19.8,2.7c0,0,0-0.1,0-0.1C19.7,2.6,19.7,2.6,19.8,2.7z"/>
					<polygon class="st0" points="13.2,3.3 13.2,3.3 13.2,3.3 					"/>
					<path class="st0" d="M26.7,3.3c0,0-0.1-0.1-0.1-0.1C26.6,3.2,26.6,3.3,26.7,3.3z"/>
					<path class="st0" d="M31.2,1.5l-0.1,0c0.1,0,0.1,0.1,0.1,0.1C31.2,1.6,31.2,1.5,31.2,1.5z"/>
					<path class="st0" d="M32,3.2C32.1,3.1,32.1,3.2,32,3.2L32.1,3C32,3,32,3.1,32,3.2z"/>
					<path class="st0" d="M31.2,2.3c0,0.2,0.1,0.1,0.2,0.1c0,0,0,0,0,0C31.4,2.2,31.3,2.2,31.2,2.3z"/>
					<path class="st0" d="M31.4,2.4C31.4,2.4,31.4,2.4,31.4,2.4C31.5,2.3,31.4,2.4,31.4,2.4z"/>
					<path class="st0" d="M30.3,1.6c0,0.1,0.1-0.3,0.1-0.2C30.5,1.2,30.1,1.7,30.3,1.6z"/>
					<polygon class="st0" points="31.1,3 31.1,2.7 31.1,2.9 					"/>
					<path class="st0" d="M30.5,2.7l0.1,0.1c0,0,0-0.1,0.1-0.1C30.6,2.7,30.5,2.6,30.5,2.7z"/>
					<path class="st0" d="M30.6,2.7c0,0,0.1,0,0.1,0C30.7,2.7,30.7,2.7,30.6,2.7z"/>
					<polygon class="st0" points="30.9,3 30.9,3 30.8,2.9 					"/>
					<path class="st0" d="M28.9,2.4l-0.2,0c0,0.1,0,0.1,0.1,0.1C28.9,2.5,28.9,2.5,28.9,2.4z"/>
					<path class="st0" d="M29.3,3.1c0-0.1,0-0.1,0-0.2l-0.1,0.3L29.3,3.1z"/>
					<path class="st0" d="M28.8,3.1c0,0.1-0.3,0.2-0.1,0.2C28.8,3.3,29,3.2,28.8,3.1z"/>
					<polygon class="st0" points="26.5,2.4 26.6,2.4 26.6,1.9 					"/>
					<path class="st0" d="M24.3,3.4c0.2,0.1,0.1-0.3,0.2-0.1c0.1-0.1-0.1-0.1-0.1-0.2C24.4,3.2,24.3,3.1,24.3,3.4z"/>
					<path class="st0" d="M24.5,3C24.5,3,24.5,3,24.5,3C24.5,3,24.5,3,24.5,3z"/>
					<polygon class="st0" points="0.7,2.5 0.6,2.4 0.7,2.6 					"/>
					<path class="st0" d="M0.6,2.9L0.5,2.6l0,0.3C0.5,2.9,0.5,2.9,0.6,2.9z"/>
					<path class="st0" d="M17.1,3.5L17.1,3.5c0-0.2,0-0.2-0.1-0.2L17.1,3.5z"/>
					<polygon class="st0" points="15.5,3.3 15.5,3.3 15.5,3 					"/>
					<path class="st0" d="M14.2,3.7c0.1,0,0.1-0.1,0.2,0C14.2,3.8,14.2,3.4,14.2,3.7z"/>
				</g>
			</g>
		</g>
	</g>
</g>
</svg>
