<svg xmlns="http://www.w3.org/2000/svg" xmlns:xlink="http://www.w3.org/1999/xlink" version="1.1" width="1000" height="1000" viewBox="0 0 1000 1000" xml:space="preserve">
<desc>Created with Fabric.js 3.5.0</desc>
<defs>
</defs>
<rect x="0" y="0" width="100%" height="100%" fill="#f7b035"/>
<g transform="matrix(0.536 0 0 0.536 500 500)" id="774483">
<g style="" vector-effect="non-scaling-stroke">
		<g transform="matrix(1 0 0 1 -450 -450)" id="210996">
<rect style="stroke: none; stroke-width: 1; stroke-dasharray: none; stroke-linecap: butt; stroke-dashoffset: 0; stroke-linejoin: miter; stroke-miterlimit: 4; is-custom-font: none; font-file-url: none; fill: rgb(255,255,255); fill-opacity: 0; fill-rule: nonzero; opacity: 1;" x="-50" y="-50" rx="0" ry="0" width="100" height="100"/>
</g>
		<g transform="matrix(22.7273 0 0 22.7273 0.0005 0.0005)" id="320982">
<path style="stroke: none; stroke-width: 1; stroke-dasharray: none; stroke-linecap: butt; stroke-dashoffset: 0; stroke-linejoin: miter; stroke-miterlimit: 4; is-custom-font: none; font-file-url: none; fill: rgb(255,255,255); fill-rule: nonzero; opacity: 1;" vector-effect="non-scaling-stroke" transform=" translate(-24, -24)" d="M 24 44 q -4.15 0 -7.8 -1.575 q -3.65 -1.575 -6.35 -4.275 q -2.7 -2.7 -4.275 -6.35 Q 4 28.15 4 24 t 1.575 -7.8 Q 7.15 12.55 9.85 9.85 q 2.7 -2.7 6.35 -4.275 Q 19.85 4 24 4 t 7.8 1.575 q 3.65 1.575 6.35 4.275 q 2.7 2.7 4.275 6.35 Q 44 19.85 44 24 v 2.65 q 0 2.8 -1.975 4.725 Q 40.05 33.3 37.2 33.3 q -1.8 0 -3.4 -0.875 q -1.6 -0.875 -2.45 -2.475 q -1.3 1.7 -3.25 2.525 T 24 33.3 q -3.9 0 -6.625 -2.7 T 14.65 24 q 0 -3.9 2.725 -6.65 Q 20.1 14.6 24 14.6 t 6.625 2.75 Q 33.35 20.1 33.35 24 v 2.65 q 0 1.55 1.125 2.6 T 37.2 30.3 q 1.55 0 2.675 -1.05 Q 41 28.2 41 26.65 V 24 q 0 -7.1 -4.95 -12.05 Q 31.1 7 24 7 q -7.1 0 -12.05 4.95 Q 7 16.9 7 24 q 0 7.1 4.95 12.05 Q 16.9 41 24 41 h 10.7 v 3 Z m 0 -13.7 q 2.65 0 4.5 -1.825 T 30.35 24 q 0 -2.7 -1.85 -4.55 q -1.85 -1.85 -4.5 -1.85 t -4.5 1.85 Q 17.65 21.3 17.65 24 q 0 2.65 1.85 4.475 Q 21.35 30.3 24 30.3 Z" stroke-linecap="round"/>
</g>
</g>
</g>
</svg>